Coordinates
version=1
nRows=15
nColumns=27
inDegrees=yes

Units are S.I. units (second, meters, Newtons, ...)
If the header above contains a line with 'inDegrees', this indicates whether rotational values are in degrees (yes) or radians (no).

endheader
time	pelvis_rotation	pelvis_tilt	pelvis_list	pelvis_tx	pelvis_ty	pelvis_tz	hip_flexion_r	hip_adduction_r	hip_rotation_r	knee_angle_r	knee_rotation_r	knee_adduction_r	knee_angle_r_beta	ankle_angle_r	subtalar_angle_r	mtp_angle_r	hip_flexion_l	hip_adduction_l	hip_rotation_l	knee_angle_l	knee_rotation_l	knee_adduction_l	knee_angle_l_beta	ankle_angle_l	subtalar_angle_l	mtp_angle_l
      8.92000000	      3.42641423	     -2.83679940	     -0.51423327	      0.04255608	      0.91066493	     -1.18509723	      9.43568030	     -5.03373658	    -24.05102600	      9.49543503	      0.00000000	      7.71876558	      0.16572661	     -0.32989731	      0.00000000	      0.00000000	     10.76566839	     -6.67393999	    -12.07333234	      8.75436648	      0.00000000	     -5.60711527	      0.15279252	     -2.77515241	      0.00000000	      0.00000000
      8.92500000	      3.82713070	     -2.15610491	     -0.41295686	      0.04472876	      0.91088455	     -1.18564259	      8.35187113	     -5.16565646	    -25.41344088	      9.08703153	      0.00000000	      8.66356784	      0.15859862	     -0.38355203	      0.00000000	      0.00000000	      9.70115078	     -6.41412217	    -11.83881083	      8.16121305	      0.00000000	     -5.81153270	      0.14244004	     -2.98115465	      0.00000000	      0.00000000
      8.93000000	      3.70765155	     -2.33761590	     -0.40757141	      0.04437527	      0.91084819	     -1.18552498	      8.58286015	     -5.12819708	    -24.38653070	      9.13716057	      0.00000000	      7.72153850	      0.15947354	     -0.38569770	      0.00000000	      0.00000000	      9.93692106	     -6.45082551	    -11.66382957	      8.28987487	      0.00000000	     -5.35516399	      0.14468561	     -2.94155013	      0.00000000	      0.00000000
      8.93500000	      3.90597153	     -1.73079069	     -0.36415584	      0.04627286	      0.91100261	     -1.18582841	      7.61519241	     -5.14491331	    -25.45124271	      8.69602927	      0.00000000	      8.61194700	      0.15177434	     -0.47279435	      0.00000000	      0.00000000	      9.02600207	     -6.32485515	    -11.80673251	      7.88362036	      0.00000000	     -5.74033679	      0.13759513	     -3.03021883	      0.00000000	      0.00000000
      8.94000000	      3.90241167	     -1.50939548	     -0.27186912	      0.04696670	      0.91103787	     -1.18599577	      7.30052978	     -5.22884842	    -25.49431852	      8.60824793	      0.00000000	      8.62540516	      0.15024227	     -0.45458587	      0.00000000	      0.00000000	      8.61995898	     -6.20054708	    -11.73334648	      7.62965094	      0.00000000	     -5.58548421	      0.13316253	     -3.14162749	      0.00000000	      0.00000000
      8.94500000	      3.92056561	     -1.32790150	     -0.25236634	      0.04755298	      0.91107727	     -1.18605820	      7.00762092	     -5.22455360	    -25.51138182	      8.47163756	      0.00000000	      8.60275852	      0.14785797	     -0.49487465	      0.00000000	      0.00000000	      8.33452593	     -6.16490898	    -11.69239417	      7.51022327	      0.00000000	     -5.51579544	      0.13107812	     -3.17009382	      0.00000000	      0.00000000
      8.95000000	      3.74736665	     -1.54959654	     -0.27084131	      0.04695353	      0.91099745	     -1.18587308	      7.33549098	     -5.17567961	    -24.43817199	      8.59638624	      0.00000000	      7.64505411	      0.15003524	     -0.45507475	      0.00000000	      0.00000000	      8.66964154	     -6.24460092	    -11.62120501	      7.73315130	      0.00000000	     -5.14223881	      0.13496895	     -3.10737337	      0.00000000	      0.00000000
      8.95500000	      3.90763955	     -0.97985560	     -0.18900578	      0.04857176	      0.91109719	     -1.18614523	      6.47391876	     -5.24191276	    -25.49385322	      8.24556136	      0.00000000	      8.56205023	      0.14391219	     -0.50162180	      0.00000000	      0.00000000	      7.78898635	     -6.08130857	    -11.67407536	      7.27799408	      0.00000000	     -5.41414448	      0.12702496	     -3.25405129	      0.00000000	      0.00000000
      8.96000000	      3.90785903	     -0.84144804	     -0.21936615	      0.04897009	      0.91108011	     -1.18608532	      6.24266820	     -5.17948067	    -25.49811264	      8.11419912	      0.00000000	      8.54338247	      0.14161949	     -0.53346305	      0.00000000	      0.00000000	      7.63536226	     -6.12104161	    -11.73766671	      7.30429071	      0.00000000	     -5.46407894	      0.12748392	     -3.20927576	      0.00000000	      0.00000000
      8.96500000	      3.90416852	     -0.69839332	     -0.23936676	      0.04935714	      0.91105394	     -1.18601345	      6.00692658	     -5.12446391	    -25.45901606	      7.98030693	      0.00000000	      8.50054139	      0.13928263	     -0.56115372	      0.00000000	      0.00000000	      7.46016189	     -6.14913698	    -11.76961534	      7.29342951	      0.00000000	     -5.47417828	      0.12729436	     -3.19156145	      0.00000000	      0.00000000
      8.97000000	      3.90808707	     -0.54513507	     -0.24764475	      0.04967606	      0.91100533	     -1.18594293	      5.79227063	     -5.09854601	    -25.46502395	      7.90959697	      0.00000000	      8.48562892	      0.13804851	     -0.57025994	      0.00000000	      0.00000000	      7.29203057	     -6.16482733	    -11.79078124	      7.30343061	      0.00000000	     -5.49464643	      0.12746891	     -3.16827856	      0.00000000	      0.00000000
      8.97500000	      3.89852857	     -0.41210133	     -0.29104808	      0.04992558	      0.91096428	     -1.18574944	      5.58319679	     -5.01254186	    -25.40543475	      7.78827890	      0.00000000	      8.44111846	      0.13593111	     -0.59463820	      0.00000000	      0.00000000	      7.15422911	     -6.22850890	    -11.84034116	      7.32192698	      0.00000000	     -5.53744708	      0.12779173	     -3.16273615	      0.00000000	      0.00000000
      8.98000000	      3.94353898	     -0.25757540	     -0.29204638	      0.05024319	      0.91085193	     -1.18568013	      5.38243425	     -5.01089866	    -25.45571378	      7.76945812	      0.00000000	      8.43309868	      0.13560263	     -0.53328240	      0.00000000	      0.00000000	      7.03395402	     -6.23827623	    -11.87457928	      7.40902649	      0.00000000	     -5.61898138	      0.12931191	     -3.10889237	      0.00000000	      0.00000000
      8.98500000	      3.76543234	     -0.49938192	     -0.47362606	      0.04932000	      0.91070927	     -1.18518026	      5.71280640	     -4.76693032	    -24.24329087	      7.79797890	      0.00000000	      7.36191987	      0.13610041	     -0.66122786	      0.00000000	      0.00000000	      7.59013948	     -6.53813924	    -11.96604990	      7.96661529	      0.00000000	     -5.43782032	      0.13904367	     -2.84168597	      0.00000000	      0.00000000
      8.99000000	      3.93039775	      0.05313536	     -0.37448025	      0.05070132	      0.91066391	     -1.18535767	      4.99345763	     -4.89184687	    -25.47362931	      7.67689700	      0.00000000	      8.42576683	      0.13398713	     -0.55461793	      0.00000000	      0.00000000	      6.80254722	     -6.37096089	    -12.08500462	      7.61021179	      0.00000000	     -5.81149848	      0.13282325	     -2.96956452	      0.00000000	      0.00000000
